<svg width="28" height="28" viewBox="0 0 28 28" fill="none" xmlns="http://www.w3.org/2000/svg">
    <path d="M14.102 14.102C12.9811 15.222 11.6328 15.7778 10.0278 15.7778C8.42282 15.7778 7.07455 15.222 5.95369 14.1021C5.9536 14.102 5.95351 14.102 5.95342 14.1019L14.102 14.102ZM14.102 14.102C15.222 12.9811 15.7778 11.6328 15.7778 10.0278C15.7778 8.4227 15.2219 7.07434 14.1019 5.95342L14.102 14.102ZM23.702 26.3536L24.0556 26.7071L24.4091 26.3536L26.3536 24.4091L26.7071 24.0556L26.3536 23.702L17.9112 15.2597C18.3768 14.6073 18.7526 13.8794 19.04 13.0787C19.3847 12.1184 19.5556 11.1003 19.5556 10.0278C19.5556 7.37517 18.6315 5.11145 16.7884 3.26737L16.7882 3.26719C14.9441 1.42408 12.6804 0.5 10.0278 0.5C7.37516 0.5 5.11186 1.42409 3.26867 3.26728C1.42461 5.11134 0.5 7.37508 0.5 10.0278C0.5 12.6805 1.42461 14.9442 3.26867 16.7883C5.11186 18.6315 7.37516 19.5556 10.0278 19.5556C11.1003 19.5556 12.1184 19.3847 13.0787 19.04C13.8794 18.7526 14.6073 18.3768 15.2597 17.9112L23.702 26.3536Z" stroke="#6461FC"/>
</svg>
