<svg width="27" height="27" viewBox="0 0 27 27" fill="none" xmlns="http://www.w3.org/2000/svg">
    <path d="M9.2067 17.4817L9.20696 17.4816C10.5751 16.9934 12.0071 16.75 13.5 16.75C14.9929 16.75 16.4249 16.9934 17.793 17.4816L17.7933 17.4817C18.994 17.9109 20.0967 18.48 21.0995 19.1896C21.6514 18.4717 22.0926 17.6736 22.423 16.7933L9.2067 17.4817ZM9.2067 17.4817C8.006 17.9109 6.90331 18.48 5.90048 19.1896C5.34877 18.4716 4.90797 17.6736 4.57822 16.7933L4.5781 16.793M9.2067 17.4817L4.5781 16.793M4.5781 16.793C4.19381 15.7693 4 14.6729 4 13.5C4 10.8609 4.92208 8.62878 6.77605 6.7748C8.62915 4.92171 10.8609 4 13.5 4C16.1391 4 18.3713 4.92171 20.2253 6.77488C22.0783 8.62881 23 10.8609 23 13.5C23 14.6729 22.8066 15.7693 22.4231 16.793H4.5781ZM8.4268 1.52471L8.42701 1.52462C10.0131 0.840638 11.7058 0.5 13.5 0.5C15.2942 0.5 16.9869 0.840638 18.573 1.52462L18.5732 1.52471C20.1496 2.20536 21.5258 3.13121 22.6973 4.3027C23.8688 5.47424 24.7943 6.85053 25.4741 8.42701C26.1589 10.0131 26.5 11.7058 26.5 13.5C26.5 15.2942 26.1589 16.9869 25.4741 18.573C24.7943 20.1495 23.8688 21.5258 22.6973 22.6973C21.5258 23.8688 20.1495 24.7943 18.573 25.4741C16.9869 26.1589 15.2942 26.5 13.5 26.5C11.7058 26.5 10.0131 26.1589 8.42701 25.4741C6.85053 24.7943 5.47424 23.8688 4.3027 22.6973C3.13116 21.5258 2.2057 20.1495 1.52587 18.573C0.841059 16.9869 0.5 15.2942 0.5 13.5C0.5 11.7058 0.841059 10.0131 1.52587 8.42701L8.4268 1.52471ZM8.4268 1.52471C6.85041 2.20537 5.47419 3.13121 4.3027 4.3027C3.13121 5.47418 2.20578 6.85041 1.52596 8.4268L8.4268 1.52471ZM10.0363 13.8384L10.0366 13.8387C10.9777 14.7788 12.1428 15.25 13.5 15.25C14.8572 15.25 16.0223 14.7788 16.9634 13.8387L16.9637 13.8384C17.9038 12.8973 18.375 11.7322 18.375 10.375C18.375 9.01777 17.9038 7.85265 16.9637 6.91162L16.9634 6.91127C16.0223 5.97117 14.8572 5.5 13.5 5.5C12.1428 5.5 10.9777 5.97117 10.0366 6.91127L10.0363 6.91162C9.09617 7.85265 8.625 9.01777 8.625 10.375C8.625 11.7322 9.09617 12.8973 10.0363 13.8384Z" stroke="#6461FC"/>
</svg>
