<svg width="25" height="25" viewBox="0 0 25 25" fill="none" xmlns="http://www.w3.org/2000/svg">
    <path d="M0.5 6C0.5 2.96243 2.96243 0.5 6 0.5H19C22.0376 0.5 24.5 2.96243 24.5 6V19C24.5 22.0376 22.0376 24.5 19 24.5H6C2.96243 24.5 0.5 22.0376 0.5 19V6Z" stroke="#6461FC"/>
    <path d="M11.8054 5.55554C11.4371 5.55554 11.0838 5.70187 10.8233 5.96234C10.5629 6.22281 10.4165 6.57607 10.4165 6.94443V10.4167H6.94431C6.57595 10.4167 6.22268 10.563 5.96222 10.8234C5.70175 11.0839 5.55542 11.4372 5.55542 11.8055V13.1944C5.55542 13.9583 6.18042 14.5833 6.94431 14.5833H10.4165V18.0555C10.4165 18.8194 11.0415 19.4444 11.8054 19.4444H13.1943C13.5627 19.4444 13.9159 19.2981 14.1764 19.0376C14.4369 18.7772 14.5832 18.4239 14.5832 18.0555V14.5833H18.0554C18.4238 14.5833 18.777 14.437 19.0375 14.1765C19.298 13.9161 19.4443 13.5628 19.4443 13.1944V11.8055C19.4443 11.4372 19.298 11.0839 19.0375 10.8234C18.777 10.563 18.4238 10.4167 18.0554 10.4167H14.5832V6.94443C14.5832 6.57607 14.4369 6.22281 14.1764 5.96234C13.9159 5.70187 13.5627 5.55554 13.1943 5.55554H11.8054Z" stroke="#6461FC" stroke-linecap="round" stroke-linejoin="round"/>
</svg>
