<?xml version="1.0" encoding="UTF-8"?>
<svg id="a" data-name="Calque 1" xmlns="http://www.w3.org/2000/svg" viewBox="0 0 977.94 159.87">
  <defs>
    <style>
      .b {
        fill: #535ba5;
      }
    </style>
  </defs>
  <g>
    <path class="b" d="M81.14,93.34c.02,.11,.03,.21,.05,.32,.42-.22,.84-.45,1.26-.68-.44,.11-.88,.23-1.31,.36Z"/>
    <path class="b" d="M81.14,93.34c.02,.11,.03,.21,.05,.32,.42-.22,.84-.45,1.26-.68-.44,.11-.88,.23-1.31,.36Z"/>
    <g>
      <path class="b" d="M81.82,99.68c.09,1.42,.13,2.86,.13,4.3,0,4-.34,7.91-.98,11.72-.68,3.98-1.69,7.86-3.01,11.58-4.64,13.11-13.1,24.42-24.04,32.59,21.9-3.86,40.27-17.94,50.01-37.14,1.17-2.31,2.22-4.7,3.14-7.15,2.79-7.48,4.33-15.56,4.38-24v-.39c0-1.04-.02-2.07-.07-3.1-.07-1.59-.19-3.17-.37-4.73-.12-1.14-.28-2.28-.47-3.41-.61-3.77-1.52-7.45-2.72-10.99-.61-1.83-1.3-3.62-2.06-5.38-3.18-7.36-7.59-14.07-12.97-19.86-.21-.23-.42-.45-.63-.68-12.7-13.3-30.61-21.6-50.45-21.6-15.64,0-30.09,5.15-41.72,13.85,3.97-.7,8.05-1.07,12.22-1.07,20.53,0,38.99,8.87,51.75,22.99,1.88,2.09,3.65,4.29,5.27,6.6,4.23,6,7.54,12.69,9.72,19.87,.12,.38,.23,.77,.34,1.15,.28,.97,.53,1.95,.77,2.94,.43,1.82,.79,3.67,1.08,5.54,.02,.11,.03,.21,.05,.32,.29,1.98,.5,3.99,.63,6.02Z"/>
      <path class="b" d="M96.36,39.29c.19,.2,.38,.41,.57,.61,5.12,5.51,9.32,11.63,12.55,18.27,2.71-4.38,4.96-9.14,6.69-14.22,5.03-14.81,4.81-30.14,.32-43.96-.61,3.98-1.58,7.96-2.92,11.91-3.65,10.72-9.64,19.97-17.22,27.38Z"/>
    </g>
    <path class="b" d="M112.61,116.84c5.1,1.38,9.94,3.31,14.47,5.71,12.28,6.52,22.23,16.55,28.7,28.57-.6-22.23-11.83-42.47-29.39-54.93-2.93-2.08-6.05-3.95-9.32-5.57,0,.2,0,.39,0,.59v.42c-.05,8.73-1.55,17.18-4.47,25.22Z"/>
  </g>
  <g>
    <path class="b" d="M281.75,123.21h-26.71v-30.91h-35.86v30.91h-26.71V36.66h26.71v30.42h35.86v-30.42h26.71V123.21Z"/>
    <path class="b" d="M321.07,108.87l-5.56,14.34h-28.07l34.99-86.56h33.14l34.99,86.56h-28.32l-5.56-14.34h-35.61Zm17.81-46.37l-8.16,21.15h16.32l-8.16-21.15Z"/>
    <path class="b" d="M471.93,123.21h-75.68V36.66h26.71v61.33h48.97v25.23Z"/>
    <path class="b" d="M556.76,123.21h-75.68V36.66h26.71v61.33h48.97v25.23Z"/>
    <path class="b" d="M657.91,83.89c-.37,31.28-10.14,41.05-41.43,41.43h-11.38c-31.28-.37-41.05-10.14-41.43-41.43v-7.91c.37-31.28,10.14-41.05,41.43-41.43h11.38c31.28,.37,41.05,10.14,41.43,41.43v7.91Zm-67.52-.62c0,13.85,2.72,16.57,16.57,16.57h7.67c13.85,0,16.57-2.72,16.57-16.57v-6.68c0-13.6-2.72-16.57-16.57-16.57h-7.67c-13.85,0-16.57,2.97-16.57,16.57v6.68Z"/>
    <path class="b" d="M756.22,123.21h-25.72l-10.51-37.34-10.51,37.34h-25.72l-23.87-86.56h27.95l10.26,39.45,11.38-39.69h21.27l11.38,39.69,10.26-39.45h27.7l-23.86,86.56Z"/>
    <path class="b" d="M876.29,83.89c-.37,31.28-10.14,41.05-41.43,41.43h-11.38c-31.28-.37-41.05-10.14-41.43-41.43v-7.91c.37-31.28,10.14-41.05,41.43-41.43h11.38c31.28,.37,41.05,10.14,41.43,41.43v7.91Zm-67.52-.62c0,13.85,2.72,16.57,16.57,16.57h7.67c13.85,0,16.57-2.72,16.57-16.57v-6.68c0-13.6-2.72-16.57-16.57-16.57h-7.67c-13.85,0-16.57,2.97-16.57,16.57v6.68Z"/>
    <path class="b" d="M977.94,81.79c0,30.54-13.85,41.43-45.14,41.43h-45.38V36.66h45.38c31.29,0,45.14,10.88,45.14,41.43v3.71Zm-63.81,16.2h16.82c14.72,0,20.28-4.58,20.28-16.82v-2.47c0-12.24-5.57-16.82-20.28-16.82h-16.82v36.11Z"/>
  </g>
</svg>