<svg xmlns="http://www.w3.org/2000/svg" viewBox="0 0 24 24" width="24" height="24" preserveAspectRatio="xMidYMid meet" style="width: 100%; height: 100%; transform: translate3d(0px, 0px, 0px);"><defs><clipPath id="__lottie_element_145"><rect width="24" height="24" x="0" y="0"></rect></clipPath></defs><g clip-path="url(#__lottie_element_145)"><g transform="matrix(0.8687101602554321,0,0,0.8687101602554321,1.5754776000976562,0.5251593589782715)" opacity="1" style="display: block;"><g opacity="1" transform="matrix(1,0,0,1,12,4)"><path fill="rgb(0,0,0)" fill-opacity="1" d=" M-2,0 C-2,1.1039999723434448 -1.1039999723434448,2 0,2 C1.1039999723434448,2 2,1.1039999723434448 2,0 C2,-1.1039999723434448 1.1039999723434448,-2 0,-2 C-1.1039999723434448,-2 -2,-1.1039999723434448 -2,0z"></path></g></g><g transform="matrix(0.6243814826011658,0,0,0.6243814826011658,2.253711223602295,2.253711223602295)" opacity="1" style="display: block;"><g opacity="1" transform="matrix(1,0,0,1,6,6)"><path fill="rgb(0,0,0)" fill-opacity="1" d=" M-1.4140000343322754,1.4140000343322754 C-0.6330000162124634,2.194999933242798 0.6330000162124634,2.194999933242798 1.4140000343322754,1.4140000343322754 C2.194999933242798,0.6330000162124634 2.194999933242798,-0.6330000162124634 1.4140000343322754,-1.4140000343322754 C0.6330000162124634,-2.194999933242798 -0.6330000162124634,-2.194999933242798 -1.4140000343322754,-1.4140000343322754 C-2.194999933242798,-0.6330000162124634 -2.194999933242798,0.6330000162124634 -1.4140000343322754,1.4140000343322754z"></path></g></g><g transform="matrix(0.34091606736183167,0,0,0.34091606736183167,2.636335849761963,7.9090070724487305)" opacity="1" style="display: block;"><g opacity="1" transform="matrix(1,0,0,1,4,12)"><path fill="rgb(0,0,0)" fill-opacity="1" d=" M0,-2 C-1.1039999723434448,-2 -2,-1.1039999723434448 -2,0 C-2,1.1039999723434448 -1.1039999723434448,2 0,2 C1.1039999723434448,2 2,1.1039999723434448 2,0 C2,-1.1039999723434448 1.1039999723434448,-2 0,-2z"></path></g></g><g transform="matrix(0.05148763954639435,0,0,0.05148763954639435,5.691074371337891,17.073223114013672)" opacity="1" style="display: block;"><g opacity="1" transform="matrix(1,0,0,1,6,18)"><path fill="rgb(0,0,0)" fill-opacity="1" d=" M-1.4140000343322754,-1.4140000343322754 C-2.194999933242798,-0.6330000162124634 -2.194999933242798,0.6330000162124634 -1.4140000343322754,1.4140000343322754 C-0.6330000162124634,2.194999933242798 0.6330000162124634,2.194999933242798 1.4140000343322754,1.4140000343322754 C2.194999933242798,0.6330000162124634 2.194999933242798,-0.6330000162124634 1.4140000343322754,-1.4140000343322754 C0.6330000162124634,-2.194999933242798 -0.6330000162124634,-2.194999933242798 -1.4140000343322754,-1.4140000343322754z"></path></g></g><g transform="matrix(0,0,0,0,12,20)" opacity="1" style="display: block;"><g opacity="1" transform="matrix(1,0,0,1,12,20)"><path fill="rgb(0,0,0)" fill-opacity="1" d=" M-2,0 C-2,1.1039999723434448 -1.1039999723434448,2 0,2 C1.1039999723434448,2 2,1.1039999723434448 2,0 C2,-1.1039999723434448 1.1039999723434448,-2 0,-2 C-1.1039999723434448,-2 -2,-1.1039999723434448 -2,0z"></path></g></g><g style="display: block;" transform="matrix(0,0,0,0,18,18)" opacity="1"><g opacity="1" transform="matrix(1,0,0,1,18,18)"><path fill="rgb(0,0,0)" fill-opacity="1" d=" M-1.4140000343322754,1.4140000343322754 C-0.6330000162124634,2.194999933242798 0.6330000162124634,2.194999933242798 1.4140000343322754,1.4140000343322754 C2.194999933242798,0.6330000162124634 2.194999933242798,-0.6330000162124634 1.4140000343322754,-1.4140000343322754 C0.6330000162124634,-2.194999933242798 -0.6330000162124634,-2.194999933242798 -1.4140000343322754,-1.4140000343322754 C-2.194999933242798,-0.6330000162124634 -2.194999933242798,0.6330000162124634 -1.4140000343322754,1.4140000343322754z"></path></g></g><g transform="matrix(1,0,0,1,0,0)" opacity="1" style="display: none;"><g opacity="1" transform="matrix(1,0,0,1,18,18)"><path fill="rgb(0,0,0)" fill-opacity="1" d=" M-1.4140000343322754,1.4140000343322754 C-0.6330000162124634,2.194999933242798 0.6330000162124634,2.194999933242798 1.4140000343322754,1.4140000343322754 C2.194999933242798,0.6330000162124634 2.194999933242798,-0.6330000162124634 1.4140000343322754,-1.4140000343322754 C0.6330000162124634,-2.194999933242798 -0.6330000162124634,-2.194999933242798 -1.4140000343322754,-1.4140000343322754 C-2.194999933242798,-0.6330000162124634 -2.194999933242798,0.6330000162124634 -1.4140000343322754,1.4140000343322754z"></path></g></g><g style="display: block;" transform="matrix(0,0,0,0,20,12)" opacity="1"><g opacity="1" transform="matrix(1,0,0,1,20,12)"><path fill="rgb(0,0,0)" fill-opacity="1" d=" M0,-2 C-1.1039999723434448,-2 -2,-1.1039999723434448 -2,0 C-2,1.1039999723434448 -1.1039999723434448,2 0,2 C1.1039999723434448,2 2,1.1039999723434448 2,0 C2,-1.1039999723434448 1.1039999723434448,-2 0,-2z"></path></g></g><g transform="matrix(1,0,0,1,0,0)" opacity="1" style="display: none;"><g opacity="1" transform="matrix(1,0,0,1,20,12)"><path fill="rgb(0,0,0)" fill-opacity="1" d=" M0,-2 C-1.1039999723434448,-2 -2,-1.1039999723434448 -2,0 C-2,1.1039999723434448 -1.1039999723434448,2 0,2 C1.1039999723434448,2 2,1.1039999723434448 2,0 C2,-1.1039999723434448 1.1039999723434448,-2 0,-2z"></path></g></g><g style="display: block;" transform="matrix(0,0,0,0,18,6)" opacity="1"><g opacity="1" transform="matrix(1,0,0,1,18,6)"><path fill="rgb(0,0,0)" fill-opacity="1" d=" M-1.4140000343322754,-1.4140000343322754 C-2.194999933242798,-0.6330000162124634 -2.194999933242798,0.6330000162124634 -1.4140000343322754,1.4140000343322754 C-0.6330000162124634,2.194999933242798 0.6330000162124634,2.194999933242798 1.4140000343322754,1.4140000343322754 C2.194999933242798,0.6330000162124634 2.194999933242798,-0.6330000162124634 1.4140000343322754,-1.4140000343322754 C0.6330000162124634,-2.194999933242798 -0.6330000162124634,-2.194999933242798 -1.4140000343322754,-1.4140000343322754z"></path></g></g><g transform="matrix(1,0,0,1,0,0)" opacity="1" style="display: none;"><g opacity="1" transform="matrix(1,0,0,1,18,6)"><path fill="rgb(0,0,0)" fill-opacity="1" d=" M-1.4140000343322754,-1.4140000343322754 C-2.194999933242798,-0.6330000162124634 -2.194999933242798,0.6330000162124634 -1.4140000343322754,1.4140000343322754 C-0.6330000162124634,2.194999933242798 0.6330000162124634,2.194999933242798 1.4140000343322754,1.4140000343322754 C2.194999933242798,0.6330000162124634 2.194999933242798,-0.6330000162124634 1.4140000343322754,-1.4140000343322754 C0.6330000162124634,-2.194999933242798 -0.6330000162124634,-2.194999933242798 -1.4140000343322754,-1.4140000343322754z"></path></g></g></g></svg>
